<?xml version="1.0" encoding="UTF-8"?>
<svg width="1440px" height="194px" viewBox="0 0 1440 194" version="1.1" xmlns="http://www.w3.org/2000/svg" xmlns:xlink="http://www.w3.org/1999/xlink">
    <!-- Generator: Sketch 47 (45396) - http://www.bohemiancoding.com/sketch -->
    <title>主页banner</title>
    <desc>Created with Sketch.</desc>
    <defs>
        <linearGradient x1="103.842231%" y1="78.7371134%" x2="0%" y2="11.2475838%" id="linearGradient-1">
            <stop stop-color="#001A7A" offset="0%"></stop>
            <stop stop-color="#0376EC" offset="100%"></stop>
        </linearGradient>
        <rect id="path-2" x="0" y="0" width="720" height="194"></rect>
        <linearGradient x1="100%" y1="56.2620965%" x2="0%" y2="50%" id="linearGradient-4">
            <stop stop-color="#024EB4" offset="0%"></stop>
            <stop stop-color="#1C64C5" offset="100%"></stop>
        </linearGradient>
        <linearGradient x1="56.9063889%" y1="100%" x2="39.6105197%" y2="0%" id="linearGradient-5">
            <stop stop-color="#6E3288" offset="0%"></stop>
            <stop stop-color="#D22B8F" offset="48.3748144%"></stop>
            <stop stop-color="#75B7F1" offset="100%"></stop>
        </linearGradient>
        <circle id="path-6" cx="1036.42574" cy="67.4257406" r="27.8858133"></circle>
        <filter x="-2.7%" y="-2.7%" width="105.4%" height="105.4%" filterUnits="objectBoundingBox" id="filter-7">
            <feGaussianBlur stdDeviation="1" in="SourceAlpha" result="shadowBlurInner1"></feGaussianBlur>
            <feOffset dx="0" dy="1" in="shadowBlurInner1" result="shadowOffsetInner1"></feOffset>
            <feComposite in="shadowOffsetInner1" in2="SourceAlpha" operator="arithmetic" k2="-1" k3="1" result="shadowInnerInner1"></feComposite>
            <feColorMatrix values="0 0 0 0 0.470588235   0 0 0 0 0.749019608   0 0 0 0 0.976470588  0 0 0 1 0" type="matrix" in="shadowInnerInner1" result="shadowMatrixInner1"></feColorMatrix>
            <feGaussianBlur stdDeviation="0.5" in="SourceAlpha" result="shadowBlurInner2"></feGaussianBlur>
            <feOffset dx="0" dy="-1" in="shadowBlurInner2" result="shadowOffsetInner2"></feOffset>
            <feComposite in="shadowOffsetInner2" in2="SourceAlpha" operator="arithmetic" k2="-1" k3="1" result="shadowInnerInner2"></feComposite>
            <feColorMatrix values="0 0 0 0 1   0 0 0 0 0.141176471   0 0 0 0 0.541176471  0 0 0 1 0" type="matrix" in="shadowInnerInner2" result="shadowMatrixInner2"></feColorMatrix>
            <feMerge>
                <feMergeNode in="shadowMatrixInner1"></feMergeNode>
                <feMergeNode in="shadowMatrixInner2"></feMergeNode>
            </feMerge>
        </filter>
        <linearGradient x1="56.9063889%" y1="100%" x2="39.6105197%" y2="0%" id="linearGradient-8">
            <stop stop-color="#B95586" offset="0%"></stop>
            <stop stop-color="#5162AA" offset="48.3748144%"></stop>
            <stop stop-color="#AEA7E2" offset="100%"></stop>
        </linearGradient>
        <circle id="path-9" cx="423.703125" cy="153.703125" r="11.3958617"></circle>
        <filter x="-6.6%" y="-6.6%" width="113.2%" height="113.2%" filterUnits="objectBoundingBox" id="filter-10">
            <feGaussianBlur stdDeviation="1" in="SourceAlpha" result="shadowBlurInner1"></feGaussianBlur>
            <feOffset dx="0" dy="1" in="shadowBlurInner1" result="shadowOffsetInner1"></feOffset>
            <feComposite in="shadowOffsetInner1" in2="SourceAlpha" operator="arithmetic" k2="-1" k3="1" result="shadowInnerInner1"></feComposite>
            <feColorMatrix values="0 0 0 0 0.952941176   0 0 0 0 0.874509804   0 0 0 0 1  0 0 0 1 0" type="matrix" in="shadowInnerInner1" result="shadowMatrixInner1"></feColorMatrix>
            <feGaussianBlur stdDeviation="0.5" in="SourceAlpha" result="shadowBlurInner2"></feGaussianBlur>
            <feOffset dx="0" dy="-1" in="shadowBlurInner2" result="shadowOffsetInner2"></feOffset>
            <feComposite in="shadowOffsetInner2" in2="SourceAlpha" operator="arithmetic" k2="-1" k3="1" result="shadowInnerInner2"></feComposite>
            <feColorMatrix values="0 0 0 0 0.901960784   0 0 0 0 0.356862745   0 0 0 0 0.494117647  0 0 0 1 0" type="matrix" in="shadowInnerInner2" result="shadowMatrixInner2"></feColorMatrix>
            <feMerge>
                <feMergeNode in="shadowMatrixInner1"></feMergeNode>
                <feMergeNode in="shadowMatrixInner2"></feMergeNode>
            </feMerge>
        </filter>
        <linearGradient x1="82.3529132%" y1="88.7425763%" x2="14.6932578%" y2="13.103181%" id="linearGradient-11">
            <stop stop-color="#FFA5FF" offset="0%"></stop>
            <stop stop-color="#6DC0FF" offset="100%"></stop>
        </linearGradient>
        <linearGradient x1="50%" y1="0%" x2="50%" y2="100%" id="linearGradient-12">
            <stop stop-color="#55B2FD" offset="0%"></stop>
            <stop stop-color="#6383FA" offset="100%"></stop>
        </linearGradient>
        <linearGradient x1="0%" y1="0%" x2="99.1775174%" y2="92.5056379%" id="linearGradient-13">
            <stop stop-color="#F380F3" offset="0%"></stop>
            <stop stop-color="#A3E8FF" offset="52.0634122%"></stop>
            <stop stop-color="#3BE6FF" offset="100%"></stop>
        </linearGradient>
        <path d="M452.217758,89.9383433 C451.988242,101.965026 451.207884,109.217758 449.830783,111.650637 C448.407779,114.083515 445.469963,115.414713 441.017336,115.598327 C438.584458,115.598327 436.013869,115.50652 433.259667,115.36881 L432.020276,110.824376 C434.774478,110.962086 437.52868,111.053893 440.236979,111.053893 C442.899374,111.053893 444.735509,110.227632 445.745383,108.575111 C446.755257,106.92259 447.306098,102.148639 447.306098,94.3450667 L422.564182,94.3450667 L422.564182,74.1016809 L427.429939,74.1016809 L427.429939,79.2428582 L454.55883,79.2428582 L454.55883,83.8331951 L427.429939,83.8331951 L427.429939,89.9383433 L452.217758,89.9383433 Z M416,100.358408 L441.8895,100.358408 L441.8895,104.948745 L416,104.948745 L416,100.358408 Z M477.740032,92.8302555 L510.698651,92.8302555 L510.698651,104.856938 L496.51451,104.856938 L496.51451,106.64717 L511.570815,106.64717 L511.570815,109.722695 L496.51451,109.722695 L496.51451,111.650637 L514.875857,111.650637 L514.875857,115.2311 L473.471018,115.2311 L473.471018,111.650637 L491.740559,111.650637 L491.740559,109.722695 L476.867868,109.722695 L476.867868,106.64717 L491.740559,106.64717 L491.740559,104.856938 L477.740032,104.856938 L477.740032,92.8302555 Z M506.154217,102.102736 L506.154217,100.128891 L496.51451,100.128891 L496.51451,102.102736 L506.154217,102.102736 Z M491.740559,102.102736 L491.740559,100.128891 L482.284465,100.128891 L482.284465,102.102736 L491.740559,102.102736 Z M482.284465,97.5583026 L491.740559,97.5583026 L491.740559,95.630361 L482.284465,95.630361 L482.284465,97.5583026 Z M496.51451,95.630361 L496.51451,97.5583026 L506.154217,97.5583026 L506.154217,95.630361 L496.51451,95.630361 Z M478.749906,74.1934876 L509.73468,74.1934876 L509.73468,85.9906535 L478.749906,85.9906535 L478.749906,74.1934876 Z M505.144343,83.3282581 L505.144343,81.4462199 L483.340243,81.4462199 L483.340243,83.3282581 L505.144343,83.3282581 Z M483.340243,78.7838245 L505.144343,78.7838245 L505.144343,76.9017864 L483.340243,76.9017864 L483.340243,78.7838245 Z M473.471018,87.7349815 L473.471018,91.1318309 L514.875857,91.1318309 L514.875857,87.7349815 L473.471018,87.7349815 Z M543.703173,73.1377101 C540.765358,80.206829 536.220924,86.4037838 530.115776,91.6367679 L531.676491,96.6402352 C533.696239,94.9418105 535.62418,93.1974825 537.414412,91.4072511 L537.414412,116.103264 L542.188362,116.103264 L542.188362,85.8529434 C544.667144,82.5019974 546.686892,78.967438 548.201703,75.2492651 L543.703173,73.1377101 Z M565.782694,115.460617 C568.123766,115.460617 569.730384,114.909776 570.602548,113.853999 C571.474712,112.706414 572.071455,109.493179 572.392779,104.214291 L567.986056,102.69948 C567.894249,106.78488 567.618829,109.171855 567.159795,109.860406 C566.700761,110.548956 565.966307,110.916183 564.956433,110.916183 L558.346348,110.916183 C556.923344,110.916183 556.234793,110.273536 556.234793,108.988242 L556.234793,93.6106128 C561.054647,92.0498982 566.149921,89.7547298 571.566518,86.7710108 L568.674606,82.7774177 C564.726916,85.3480063 560.595613,87.3677546 556.234793,88.9284691 L556.234793,73.872164 L551.460843,73.872164 L551.460843,109.676792 C551.460843,113.532675 553.342881,115.460617 557.198764,115.460617 L565.782694,115.460617 Z M623.253712,115.873747 L617.286274,115.873747 L615.955077,111.053893 L621.692998,111.28341 C622.611065,111.28341 623.116002,110.640763 623.116002,109.355468 L623.116002,79.6100852 L594.74772,79.6100852 L594.74772,116.011457 L589.927866,116.011457 L589.927866,74.9279415 L627.935856,74.9279415 L627.935856,110.457149 C627.935856,114.037612 626.375141,115.873747 623.253712,115.873747 Z M597.272405,83.5577749 L620.591317,83.5577749 L620.591317,88.0104017 L597.272405,88.0104017 L597.272405,83.5577749 Z M599.567574,91.8203814 L618.342052,91.8203814 L618.342052,107.47343 L599.567574,107.47343 L599.567574,91.8203814 Z M613.705811,103.204417 L613.705811,96.0893947 L604.203814,96.0893947 L604.203814,103.204417 L613.705811,103.204417 Z M662.546996,75.9378156 L662.546996,80.6658627 L685.131454,80.6658627 L685.131454,75.9378156 L662.546996,75.9378156 Z M661.445315,87.3218512 L661.445315,92.0498982 L675.170423,92.0498982 L675.170423,110.089922 C675.170423,111.00799 674.527776,111.467023 673.288385,111.467023 C671.360443,111.467023 669.340695,111.329313 667.22914,111.1457 L668.284917,115.827844 L674.940906,115.827844 C678.337755,115.827844 680.03618,114.313032 680.03618,111.28341 L680.03618,92.0498982 L687.105299,92.0498982 L687.105299,87.3218512 L661.445315,87.3218512 Z M654.55981,73.7803573 L658.92063,75.8460089 C656.487752,80.8494761 652.310545,85.3939097 646.38901,89.4793096 L644.920103,84.6594558 C649.235019,81.5839301 652.448255,77.9575639 654.55981,73.7803573 Z M656.717268,84.3381322 L661.032185,86.3578805 C659.838698,88.7448557 658.323886,91.0400241 656.487752,93.2433858 L656.487752,116.011457 L651.759705,116.011457 L651.759705,97.9714329 C650.19899,99.2567272 648.500565,100.542022 646.756237,101.781413 L645.287329,97.0533655 C650.428507,93.4729027 654.238486,89.2038893 656.717268,84.3381322 Z M792.637145,89.9383433 C792.407628,101.965026 791.627271,109.217758 790.25017,111.650637 C788.827165,114.083515 785.88935,115.414713 781.436723,115.598327 C779.003844,115.598327 776.433255,115.50652 773.679053,115.36881 L772.439662,110.824376 C775.193864,110.962086 777.948067,111.053893 780.656365,111.053893 C783.318761,111.053893 785.154896,110.227632 786.16477,108.575111 C787.174644,106.92259 787.725484,102.148639 787.725484,94.3450667 L762.983568,94.3450667 L762.983568,74.1016809 L767.849325,74.1016809 L767.849325,79.2428582 L794.978217,79.2428582 L794.978217,83.8331951 L767.849325,83.8331951 L767.849325,89.9383433 L792.637145,89.9383433 Z M756.419386,100.358408 L782.308887,100.358408 L782.308887,104.948745 L756.419386,104.948745 L756.419386,100.358408 Z M829.038517,76.5804628 L829.038517,111.191603 L824.44818,111.191603 L824.44818,108.437401 L819.444712,108.437401 L819.444712,112.293284 L814.762569,112.293284 L814.762569,76.5804628 L829.038517,76.5804628 Z M819.444712,103.984774 L824.44818,103.984774 L824.44818,94.4827768 L819.444712,94.4827768 L819.444712,103.984774 Z M819.444712,90.03015 L824.44818,90.03015 L824.44818,80.9412829 L819.444712,80.9412829 L819.444712,90.03015 Z M836.061732,90.4891837 C838.815934,94.8041004 840.973393,98.5222733 842.4423,101.689606 L838.448707,104.443808 C836.887993,101.046959 834.776438,97.1910756 832.114042,92.9679656 L836.061732,90.4891837 Z M845.930957,115.552423 L837.714253,115.552423 L836.658476,110.916183 C839.320871,111.099796 841.845557,111.191603 844.232532,111.191603 C845.242406,111.191603 845.793246,110.640763 845.793246,109.539082 L845.793246,86.0824602 L830.736941,86.0824602 L830.736941,81.4462199 L845.793246,81.4462199 L845.793246,73.9180674 L850.659004,73.9180674 L850.659004,81.4462199 L855.616567,81.4462199 L855.616567,86.0824602 L850.659004,86.0824602 L850.659004,110.73257 C850.659004,113.945805 849.052386,115.552423 845.930957,115.552423 Z M910.884224,83.8331951 L911.664581,88.3776287 L897.021406,90.397377 C897.250923,92.6925454 897.526344,94.7122937 897.893571,96.4566217 C898.903445,101.230572 900.280546,104.902842 902.024874,107.381624 C903.631492,109.768599 905.146303,111.00799 906.569307,111.099796 C907.579181,111.00799 908.359539,108.299691 908.864476,102.928997 L913.041682,105.361875 C912.399035,109.125952 911.572775,111.880154 910.516997,113.716289 C909.59893,115.185196 908.359539,115.91965 906.844728,115.965554 C904.549559,115.965554 902.162584,114.450742 899.683802,111.512927 C896.975503,108.299691 894.955755,104.076581 893.624557,98.8435969 C893.073717,96.7320419 892.660586,94.1155499 892.339263,91.0400241 L882.883169,92.3712218 L882.148715,87.8267883 L891.926133,86.4496872 C891.650712,82.6397075 891.467099,78.2788875 891.375292,73.4131303 L896.241049,73.4131303 C896.241049,78.095274 896.378759,82.2265772 896.65418,85.80704 L910.884224,83.8331951 Z M875.997663,92.141705 C874.712369,93.6565162 873.381171,95.1713274 871.958167,96.6402352 L870.397452,91.6367679 C875.033693,86.4496872 878.476445,80.3445391 880.679807,73.2754202 L885.178337,75.3869752 C884.076656,78.7838245 882.607749,81.9970604 880.863421,85.0266827 L880.863421,116.103264 L875.997663,116.103264 L875.997663,92.141705 Z M901.060903,73.5967438 C903.769202,75.8460089 906.06437,78.095274 907.992312,80.3445391 L904.733173,83.5577749 C903.172458,81.4003166 900.969096,79.0592447 898.031281,76.5345594 L901.060903,73.5967438 Z M941.134544,73 C942.511645,75.2033617 943.79694,77.6362403 945.082234,80.2986357 L942.282129,81.6757368 L953.574357,81.6757368 C955.043265,78.9215346 956.374463,76.0296224 957.567951,73 L962.755031,74.8361348 C961.65335,77.3608201 960.459863,79.6559885 959.174568,81.6757368 L968.263436,81.6757368 L968.263436,86.3119771 L959.771312,86.3119771 L959.771312,95.630361 L970.053667,95.630361 L970.053667,100.266601 L959.771312,100.266601 L959.771312,115.78194 L954.905555,115.78194 L954.905555,100.266601 L943.567423,100.266601 C943.016582,102.928997 942.282129,105.270069 941.364061,107.289817 C939.43612,111.191603 936.360594,114.221226 932.045677,116.332781 L929.245572,111.880154 C933.285068,109.768599 935.993367,107.0603 937.416371,103.847064 C937.875405,102.745383 938.242632,101.551896 938.563956,100.266601 L928.694731,100.266601 L928.694731,95.630361 L939.390216,95.630361 C939.57383,93.9778398 939.71154,92.2794151 939.757443,90.4432803 L939.757443,86.3119771 L930.576769,86.3119771 L930.576769,81.6757368 L940.40009,81.6757368 C939.252506,79.2887616 938.013115,77.0853999 936.727821,75.111555 L941.134544,73 Z M944.255973,95.630361 L954.905555,95.630361 L954.905555,86.3119771 L944.577297,86.3119771 L944.577297,90.4432803 C944.531394,92.2794151 944.439587,93.9778398 944.255973,95.630361 Z M1020.36376,81.078993 L994.566066,81.078993 L994.566066,85.1184895 L1020.36376,85.1184895 L1020.36376,81.078993 Z M994.566066,89.4334062 L994.566066,93.1515791 C994.520163,102.010929 992.592221,109.630889 988.828145,116.05736 L985.201779,112.798221 C988.185498,107.702947 989.700309,101.138765 989.746212,93.1515791 L989.746212,76.6263662 L1005.49107,76.6263662 C1005.03203,75.616492 1004.573,74.6984247 1004.11397,73.872164 L1009.34695,73.0459034 C1009.76008,74.1475842 1010.17321,75.3410718 1010.58634,76.6263662 L1025,76.6263662 L1025,89.4334062 L994.566066,89.4334062 Z M1001.7729,102.469963 L1001.7729,105.040552 L1019.21618,105.040552 L1019.21618,102.469963 L1001.7729,102.469963 Z M1019.21618,98.61408 L1019.21618,96.0434914 L1001.7729,96.0434914 L1001.7729,98.61408 L1019.21618,98.61408 Z M1001.7729,108.896435 L1001.7729,115.78194 L997.182558,115.78194 L997.182558,91.9121881 L1023.80651,91.9121881 L1023.80651,111.053893 C1023.80651,114.175322 1022.2458,115.736037 1019.17027,115.736037 L1014.1668,115.736037 L1013.06512,111.467023 L1017.74727,111.650637 C1018.71124,111.650637 1019.21618,111.099796 1019.21618,110.044019 L1019.21618,108.896435 L1001.7729,108.896435 Z" id="path-14"></path>
        <filter x="-2.1%" y="-25.4%" width="104.3%" height="160.0%" filterUnits="objectBoundingBox" id="filter-15">
            <feOffset dx="0" dy="2" in="SourceAlpha" result="shadowOffsetOuter1"></feOffset>
            <feGaussianBlur stdDeviation="4" in="shadowOffsetOuter1" result="shadowBlurOuter1"></feGaussianBlur>
            <feColorMatrix values="0 0 0 0 0.0869953075   0 0 0 0 0.121840327   0 0 0 0 0.322199192  0 0 0 0.46056952 0" type="matrix" in="shadowBlurOuter1"></feColorMatrix>
        </filter>
        <linearGradient x1="60.1746943%" y1="100%" x2="14.7880214%" y2="-12.8439027%" id="linearGradient-16">
            <stop stop-color="#FA83FA" offset="0%"></stop>
            <stop stop-color="#9BDAEF" offset="52.0634122%"></stop>
            <stop stop-color="#57EAFF" offset="100%"></stop>
        </linearGradient>
        <linearGradient x1="60.1746943%" y1="100%" x2="14.7880214%" y2="-12.8439027%" id="linearGradient-17">
            <stop stop-color="#ECFA83" offset="0%"></stop>
            <stop stop-color="#9BDAEF" offset="52.0634122%"></stop>
            <stop stop-color="#57EAFF" offset="100%"></stop>
        </linearGradient>
        <filter x="-38.1%" y="-38.1%" width="176.3%" height="176.3%" filterUnits="objectBoundingBox" id="filter-18">
            <feGaussianBlur stdDeviation="1.19419643" in="SourceGraphic"></feGaussianBlur>
        </filter>
        <filter x="-48.4%" y="-48.4%" width="196.9%" height="196.9%" filterUnits="objectBoundingBox" id="filter-19">
            <feGaussianBlur stdDeviation="1.19419643" in="SourceGraphic"></feGaussianBlur>
        </filter>
        <filter x="-24.4%" y="-24.4%" width="148.9%" height="148.9%" filterUnits="objectBoundingBox" id="filter-20">
            <feGaussianBlur stdDeviation="0.948660714" in="SourceGraphic"></feGaussianBlur>
        </filter>
        <linearGradient x1="60.1746943%" y1="100%" x2="14.7880214%" y2="-12.8439027%" id="linearGradient-21">
            <stop stop-color="#E7FA83" offset="0%"></stop>
            <stop stop-color="#9BDAEF" offset="61.6402658%"></stop>
            <stop stop-color="#57EAFF" offset="100%"></stop>
        </linearGradient>
    </defs>
    <g id="新需求" stroke="none" stroke-width="1" fill="none" fill-rule="evenodd">
        <g id="主页" transform="translate(0.000000, -50.000000)">
            <rect id="Rectangle-10" fill="#FFFFFF" x="0" y="240" width="1440" height="120"></rect>
            <text id="banner目前是个展示，后面会重新设计" font-family="PingFangHK-Regular, PingFang HK" font-size="14" font-weight="normal" fill="#FFFFFF">
                <tspan x="1172" y="197">banner目前是个展示，后面会重新设计</tspan>
            </text>
            <g id="主页banner" transform="translate(0.000000, 50.000000)">
                <rect id="Rectangle-19-Copy" fill="url(#linearGradient-1)" x="0" y="0" width="1440" height="194"></rect>
                <g id="纹理">
                    <mask id="mask-3" fill="white">
                        <use xlink:href="#path-2"></use>
                    </mask>
                    <g id="Mask"></g>
                    <g id="Group-11" opacity="0.472090127" mask="url(#mask-3)" stroke="#81C4FB">
                        <g transform="translate(-9.000000, -77.000000)">
                            <path d="M17.5149756,161 C31.7374001,183.704266 37.2833701,207.109869 34.1528855,231.216809 C31.0224009,255.323749 23.3047724,273.584813 11,286" id="Path-10" transform="translate(23.000000, 223.500000) rotate(-10.000000) translate(-23.000000, -223.500000) "></path>
                            <path d="M9,95 C78.9098721,142.01152 115.697357,182.990687 119.362454,217.937501 C124.8601,270.357721 94.0258407,325.374054 56.8316138,357" id="Path-11"></path>
                            <path d="M11,67 C87.2852746,104.579412 141.091511,139.954076 172.41871,173.123991 C219.409509,222.878864 230.678106,295.959976 172.41871,356" id="Path-12"></path>
                            <path d="M9,47 C114.78464,98.7507475 181.186817,134.785503 208.206531,155.104265 C248.736101,185.582409 298.324567,221.290615 307.3138,272.59894 C313.306622,306.80449 303.325397,336.938177 277.370124,363" id="Path-13"></path>
                            <path d="M11,32 C139.440053,89.5788182 217.096902,126.684083 243.970548,143.315793 C284.281016,168.263359 344.730003,199.735285 376.947734,249.047604 C409.165464,298.359922 389.723394,351.463678 383.335564,362" id="Path-14"></path>
                            <path d="M11,18 C144.148505,73.2170725 228.397461,109.920297 263.746868,128.109672 C316.770977,155.393736 392.448697,191.550397 435.71215,237.353034 C478.975603,283.155671 494.853678,324.475544 478.975603,357" id="Path-15"></path>
                            <path d="M15,7 C160.89195,68.1882433 249.687403,105.813593 281.386356,119.876049 C328.934787,140.969733 433.882874,187.350604 493.585413,234.491637 C553.287953,281.632669 573.390904,307.090183 574,362" id="Path-16"></path>
                            <path d="M38,4 C170.961796,59.2056112 255.713422,94.4650692 292.254877,109.778374 C347.06706,132.748331 469.546853,186.859307 522.31752,217.144205 C575.088188,247.429103 645.069886,295.144442 662,357" id="Path-17"></path>
                            <path d="M67,0 C176.936949,46.6661695 258.859357,80.8186383 312.767225,102.457406 C393.629025,134.915559 473.880117,169.100175 522.879072,193.224819 C571.878027,217.349463 656.841897,257.160897 707.243531,309.073387 C740.84462,343.681714 754.166818,364.323918 747.210125,371" id="Path-18"></path>
                            <path d="M94,0 C214.189373,51.5448435 304.672476,88.6378912 365.449308,111.279143 C456.614556,145.241021 571.863711,196.332703 626.786158,223.473535 C681.708605,250.614367 785.252704,304.840895 827,360" id="Path-19"></path>
                        </g>
                    </g>
                </g>
                <ellipse id="Oval" fill="url(#linearGradient-4)" transform="translate(1021.053056, 159.001214) rotate(18.000000) translate(-1021.053056, -159.001214) " cx="1021.05306" cy="159.001214" rx="50.1739042" ry="20.4999644"></ellipse>
                <g id="Oval-5" transform="translate(1036.425741, 67.425741) rotate(-32.000000) translate(-1036.425741, -67.425741) ">
                    <use fill="url(#linearGradient-5)" fill-rule="evenodd" xlink:href="#path-6"></use>
                    <use fill="black" fill-opacity="1" filter="url(#filter-7)" xlink:href="#path-6"></use>
                </g>
                <g id="Oval-5-Copy" transform="translate(423.703125, 153.703125) rotate(-32.000000) translate(-423.703125, -153.703125) ">
                    <use fill="url(#linearGradient-8)" fill-rule="evenodd" xlink:href="#path-9"></use>
                    <use fill="black" fill-opacity="1" filter="url(#filter-10)" xlink:href="#path-9"></use>
                </g>
                <path d="M361.751597,56.4821116 C354.787114,60.8340036 345.613379,58.7160801 341.261487,51.751597 C336.909595,44.7871139 339.027519,35.6133793 345.992002,31.2614873 C352.956485,26.9095953 362.13022,29.0275188 366.482112,35.9920019 C370.834004,42.9564849 368.71608,52.1302195 361.751597,56.4821116 Z M358.203602,50.7086967 C361.891719,48.4041057 363.013288,43.5460566 360.708697,39.8579402 C358.404106,36.1698238 353.546057,35.0482548 349.85794,37.3528457 C346.169824,39.6574366 345.048255,44.5154857 347.352846,48.2036021 C349.657437,51.8917185 354.515486,53.0132876 358.203602,50.7086967 Z" id="Combined-Shape" fill="url(#linearGradient-11)"></path>
                <path d="M813.102356,136.242439 C808.479379,139.131195 802.389916,137.725332 799.50116,133.102356 C796.612404,128.479379 798.018267,122.389916 802.641243,119.50116 C807.26422,116.612404 813.353683,118.018267 816.242439,122.641243 C819.131195,127.26422 817.725332,133.353683 813.102356,136.242439 Z M810.747221,132.410085 C813.195367,130.880314 813.939857,127.655574 812.410085,125.207427 C810.880314,122.75928 807.655574,122.01479 805.207427,123.544562 C802.75928,125.074334 802.01479,128.299074 803.544562,130.747221 C805.074334,133.195367 808.299074,133.939857 810.747221,132.410085 Z" id="Combined-Shape-Copy-3" fill="url(#linearGradient-12)"></path>
                <g id="与量化同行-与时代并肩">
                    <use fill="black" fill-opacity="1" filter="url(#filter-15)" xlink:href="#path-14"></use>
                    <use fill="url(#linearGradient-13)" fill-rule="evenodd" xlink:href="#path-14"></use>
                </g>
                <path d="M1145.07003,125.122355 L1145.07003,118.542893 L1141.12236,118.542893 L1141.12236,125.122355 L1134.54289,125.122355 L1134.54289,129.070033 L1141.12236,129.070033 L1141.12236,135.649495 L1145.07003,135.649495 L1145.07003,129.070033 L1151.64949,129.070033 L1151.64949,125.122355 L1145.07003,125.122355 Z" id="Combined-Shape" fill="url(#linearGradient-16)" transform="translate(1143.096194, 127.096194) rotate(45.000000) translate(-1143.096194, -127.096194) "></path>
                <path d="M691.782429,70.6140179 L691.782429,67 L689.614018,67 L689.614018,70.6140179 L686,70.6140179 L686,72.7824287 L689.614018,72.7824287 L689.614018,76.3964466 L691.782429,76.3964466 L691.782429,72.7824287 L695.396447,72.7824287 L695.396447,70.6140179 L691.782429,70.6140179 Z" id="Combined-Shape-Copy-5" fill="url(#linearGradient-17)" filter="url(#filter-18)"></path>
                <path d="M1072.55166,116.844787 L1072.55166,114 L1070.84479,114 L1070.84479,116.844787 L1068,116.844787 L1068,118.551659 L1070.84479,118.551659 L1070.84479,121.396447 L1072.55166,121.396447 L1072.55166,118.551659 L1075.39645,118.551659 L1075.39645,116.844787 L1072.55166,116.844787 Z" id="Combined-Shape-Copy-6" fill="url(#linearGradient-17)" filter="url(#filter-19)" transform="translate(1071.698223, 117.698223) rotate(90.000000) translate(-1071.698223, -117.698223) "></path>
                <path d="M282.16892,153.480575 L282.16892,149 L279.480575,149 L279.480575,153.480575 L275,153.480575 L275,156.16892 L279.480575,156.16892 L279.480575,160.649495 L282.16892,160.649495 L282.16892,156.16892 L286.649495,156.16892 L286.649495,153.480575 L282.16892,153.480575 Z" id="Combined-Shape-Copy" fill="url(#linearGradient-16)" filter="url(#filter-20)"></path>
                <path d="M475.076923,31.5725719 L475.076923,29.6494949 L473.923077,29.6494949 L473.923077,31.5725719 L472,31.5725719 L472,32.726418 L473.923077,32.726418 L473.923077,34.6494949 L475.076923,34.6494949 L475.076923,32.726418 L477,32.726418 L477,31.5725719 L475.076923,31.5725719 Z" id="Combined-Shape-Copy-4" fill="url(#linearGradient-21)" transform="translate(474.500000, 32.149495) rotate(45.000000) translate(-474.500000, -32.149495) "></path>
                <path d="M929.16892,36.480575 L929.16892,32 L926.480575,32 L926.480575,36.480575 L922,36.480575 L922,39.16892 L926.480575,39.16892 L926.480575,43.6494949 L929.16892,43.6494949 L929.16892,39.16892 L933.649495,39.16892 L933.649495,36.480575 L929.16892,36.480575 Z" id="Combined-Shape-Copy-2" fill="url(#linearGradient-16)"></path>
            </g>
        </g>
    </g>
</svg>