<?xml version="1.0" encoding="UTF-8"?>
<svg width="1440px" height="389px" viewBox="0 0 1440 389" version="1.1" xmlns="http://www.w3.org/2000/svg" xmlns:xlink="http://www.w3.org/1999/xlink">
    <!-- Generator: Sketch 46 (44423) - http://www.bohemiancoding.com/sketch -->
    <title>底部渐变</title>
    <desc>Created with Sketch.</desc>
    <defs>
        <linearGradient x1="0%" y1="50%" x2="100%" y2="50%" id="linearGradient-1">
            <stop stop-color="#3A71AB" offset="0%"></stop>
            <stop stop-color="#488ECB" offset="48.3602509%"></stop>
            <stop stop-color="#3FA8D5" offset="100%"></stop>
        </linearGradient>
    </defs>
    <g id="新需求" stroke="none" stroke-width="1" fill="none" fill-rule="evenodd">
        <g id="主页-新手专区" transform="translate(0.000000, -1873.000000)" fill="url(#linearGradient-1)">
            <g id="底部渐变" transform="translate(-3.000000, 1873.000000)">
                <g>
                    <path d="M2,57.4713819 C52.9530802,43.9329711 102.701778,34.6475925 151.246094,29.6152461 C205.550781,23.9857507 300.891361,21.956852 395.574219,37.2197872 C509.660663,55.6105926 561.253906,91.2382708 727.71875,100.752585 C868.968947,108.825753 971.599609,87.5396329 1046.86914,67.0156313 C1122.13867,46.4916296 1173.43847,39.0681293 1249.33594,29.6152461 C1299.93425,23.3133239 1364.1556,24.3247941 1442,32.6496567 L1443.22103,388.830747 L0,388.830747 L2,57.4713819 Z" id="Path-5-Copy" opacity="0.5"></path>
                    <path d="M3,4.84238652 C58.2617188,-0.0126400392 118.674479,1.13822214 184.238281,8.29497306 C267.643803,17.3992734 311.598392,41.1205065 406.28125,56.3834416 C520.367695,74.774247 636.571559,76.5766406 723,70.1322913 C792.539062,64.9472619 946.78125,17.1096531 1028.13086,8.29497306 C1109.48047,-0.519706971 1177.30859,-2.00304712 1253,4.84238652 C1303.46094,9.40600896 1366.79427,18.7331033 1443,32.8236694 L1444.22103,387.19103 L1,387.19103 L3,4.84238652 Z" id="Path-5-Copy-2" opacity="0.29232337"></path>
                    <path d="M3.65462728,96.0886465 C87.8798877,103.504533 153.722987,101.828901 201.183924,91.0617508 C272.37533,74.9110255 412.365565,25.8192862 598.330409,25.5434307 C784.295252,25.2675752 956.303065,85.7150736 1034.57064,93.5708061 C1112.83822,101.426539 1167.84798,105.54153 1243.74544,96.0886465 C1294.34375,89.7867244 1361.83562,75.7104793 1446.22103,53.8599113 L1446.22103,387.616696 L3,387.616696 L3.65462728,96.0886465 Z" id="Path-5" style="mix-blend-mode: multiply;" opacity="0.7"></path>
                </g>
            </g>
        </g>
    </g>
</svg>