<?xml version="1.0" encoding="UTF-8"?>
<svg width="49px" height="54px" viewBox="0 0 49 54" version="1.1" xmlns="http://www.w3.org/2000/svg" xmlns:xlink="http://www.w3.org/1999/xlink">
    <!-- Generator: Sketch 46 (44423) - http://www.bohemiancoding.com/sketch -->
    <title>学堂</title>
    <desc>Created with Sketch.</desc>
    <defs></defs>
    <g id="新需求" stroke="none" stroke-width="1" fill="none" fill-rule="evenodd">
        <g id="主页-登录后" transform="translate(-820.000000, -258.000000)">
            <g id="学堂" transform="translate(818.000000, 252.000000)">
                <g>
                    <path d="M36.1452676,9.21137777 L53.7305986,38.2858489 L53.7305986,38.2858489 C55.7313897,41.59383 54.6717028,45.8974402 51.3637217,47.8982312 C50.2709193,48.5591992 49.0181127,48.9086016 47.740969,48.9086016 L12.570307,48.9086016 L12.570307,48.9086016 C8.70431377,48.9086016 5.57030702,45.7745949 5.57030702,41.9086016 C5.57030702,40.631458 5.91970948,39.3786514 6.58067741,38.2858489 L24.1660084,9.21137777 L24.1660084,9.21137777 C26.1667995,5.90339668 30.4704096,4.8437098 33.7783907,6.84450087 C34.7471488,7.43044208 35.5593264,8.24261973 36.1452676,9.21137777 Z" id="Triangle" fill="#DFEFFF" transform="translate(30.156155, 27.370849) rotate(15.000000) translate(-30.156155, -27.370849) "></path>
                    <g transform="translate(9.000000, 26.000000)" id="Shape" fill-rule="nonzero" fill="#33567A">
                        <path d="M39,10.4206866 L19.5,0 L0,10.4206866 L8.53835979,14.9473705 L8.53835979,21.5791969 C8.43121693,22.0006217 8.43121693,22.527733 8.43121693,22.9458551 C8.43121693,28.8418394 13.0701058,33.6829406 18.9722222,34 C19.1825397,34 19.3941799,34 19.6051587,34 C19.8161376,34 20.0271164,34 20.2380952,34 C26.1415344,33.68228 30.7791005,28.8418394 30.7791005,22.9458551 C30.7791005,22.5244303 30.7791005,21.997319 30.6719577,21.5791969 L30.6719577,14.8403629 L38.9993386,10.418705 L39,10.4206866 L39,10.4206866 Z M19.4979545,30 C15.3681818,30 12,26.8652612 12,23.0217161 C12,22.6168653 12,22.3129098 12.1104545,21.9099626 C17.325,20.6966791 21.6729545,20.6966791 26.8895455,21.9099626 C27,22.3148135 27,22.6187689 27,23.0217161 C27,26.8658958 23.6318182,30 19.5020455,30 L19.4979545,30 Z M0,24 L0.619995672,15 L2.48257953,15 L3,24 L0,24 Z"></path>
                    </g>
                </g>
            </g>
        </g>
    </g>
</svg>