<?xml version="1.0" encoding="UTF-8"?>
<svg width="49px" height="55px" viewBox="0 0 49 55" version="1.1" xmlns="http://www.w3.org/2000/svg" xmlns:xlink="http://www.w3.org/1999/xlink">
    <!-- Generator: Sketch 46 (44423) - http://www.bohemiancoding.com/sketch -->
    <title>数据</title>
    <desc>Created with Sketch.</desc>
    <defs>
        <path d="M38.9918201,9.77487186 L59.6331236,43.9018942 L59.6331236,43.9018942 C61.3331657,46.712636 60.850078,50.3274239 58.4716124,52.5931056 L36.2150015,73.7943344 L10.671032,53.3846049 L10.671032,53.3846049 C8.05789929,51.2967018 7.2869893,47.6518312 8.83095053,44.6846801 L26.7925663,10.1664379 L26.7925663,10.1664379 C28.5771014,6.73695716 32.8038964,5.40346525 36.2333771,7.18800037 C37.3727761,7.78088821 38.3270841,8.67583954 38.9918201,9.77487186 Z" id="path-1"></path>
    </defs>
    <g id="新需求" stroke="none" stroke-width="1" fill="none" fill-rule="evenodd">
        <g id="主页-登录后" transform="translate(-563.000000, -258.000000)">
            <g id="数据" transform="translate(555.000000, 251.000000)">
                <g>
                    <g>
                        <path d="M42.1452676,10.2113778 L59.7305986,39.2858489 L59.7305986,39.2858489 C61.7313897,42.59383 60.6717028,46.8974402 57.3637217,48.8982312 C56.2709193,49.5591992 55.0181127,49.9086016 53.740969,49.9086016 L18.570307,49.9086016 L18.570307,49.9086016 C14.7043138,49.9086016 11.570307,46.7745949 11.570307,42.9086016 C11.570307,41.631458 11.9197095,40.3786514 12.5806774,39.2858489 L30.1660084,10.2113778 L30.1660084,10.2113778 C32.1667995,6.90339668 36.4704096,5.8437098 39.7783907,7.84450087 C40.7471488,8.43044208 41.5593264,9.24261973 42.1452676,10.2113778 Z" id="Triangle" fill="#DFEFFF" transform="translate(36.156155, 28.370849) rotate(15.000000) translate(-36.156155, -28.370849) "></path>
                        <path d="M27.714145,27 C24.5598853,27.0038215 22.0038003,29.5741837 22,32.7460616 L22,62 L45.5169653,62 L50,57.4815218 L50,27 L27.714145,27 Z M29.10561,49.8299316 L29.10561,55.2812345 L29.10561,49.8299316 Z M29.1073342,56.2331319 C28.3934971,56.2331319 27.8141511,55.8065986 27.8141511,55.2812345 L27.8141511,49.8299316 C27.8141511,49.3097691 28.3934971,48.8780343 29.1073342,48.8780343 C29.8211713,48.8780343 30.4005173,49.3045675 30.4005173,49.8299316 L30.4005173,55.2812345 C30.4005173,55.8065986 29.8211713,56.2331319 29.1073342,56.2331319 Z M36.0043106,48.3804122 L36.0043106,55.329783 L36.0043106,48.3804122 Z M36.0043106,56.2331319 C35.2904736,56.2331319 34.7111275,55.829139 34.7111276,55.329783 L34.7111276,48.3804122 C34.7111276,47.8810562 35.2904736,47.4770633 36.0043106,47.4770633 C36.7181477,47.4770634 37.2974937,47.8810562 37.2974937,48.3804122 L37.2974937,55.329783 C37.2974937,55.829139 36.7181477,56.2331319 36.0043106,56.2331319 L36.0043106,56.2331319 Z M42.901287,45.4050827 L42.901287,55.315912 L42.901287,45.4050827 Z M42.901287,56.2331319 C42.18745,56.2331319 41.6081039,55.8222035 41.6081039,55.315912 L41.6081039,45.4050827 C41.6081039,44.8987913 42.1874499,44.4878629 42.901287,44.4878629 C43.6151241,44.4878628 44.1944701,44.8987912 44.1944701,45.4050827 L44.1944701,55.315912 C44.1944701,55.8222035 43.6168483,56.2331319 42.901287,56.2331319 Z M30.0302333,40.3795958 C30.05093,40.3340211 30.079756,40.2918794 30.116017,40.2554741 L33.24552,36.5900624 C33.3036378,36.5276214 33.3703488,36.4766652 33.4424905,36.4378199 C33.4745789,36.386673 33.5211573,36.6507614 33.7675934,36.9258118 C34.0140295,37.2008621 34.1165771,37.2456512 34.115126,37.2790165 C33.4517364,38.0552725 32.4566519,39.2196567 31.1298725,40.7721688 C31.0542694,40.8567169 30.960615,40.9219355 30.8566956,40.9634309 C30.7336426,40.8818817 30.8582001,40.9169617 30.5053864,40.6523743 C30.1525726,40.3877869 29.9932709,40.4043274 30.0302333,40.3795958 Z M27.3158449,42.2552109 C27.3164795,41.1475021 28.2098132,40.2499545 29.3113693,40.2502733 C30.4129254,40.2505922 31.305745,41.1486569 31.3057454,42.2563658 C31.3038448,43.3641847 30.4107375,44.2615049 29.3090708,44.2624591 C28.207515,44.2615017 27.3152103,43.3629197 27.3158449,42.2552109 Z M29.3090708,41.0513227 C28.825081,41.0513227 28.3887479,41.3444996 28.203533,41.7941454 C28.0183182,42.2437913 28.1206964,42.761356 28.4629288,43.1055001 C28.8051613,43.4496441 29.3198512,43.5525941 29.7669995,43.3663447 C30.2141478,43.1800953 30.5056962,42.7413251 30.5056962,42.2546319 C30.4991411,41.5930951 29.9669418,41.0586943 29.3090708,41.0530566 L29.3090708,41.0513227 Z M35.2956463,37.6511939 C34.1940906,37.6502365 33.3017859,36.7516544 33.3024204,35.6439456 C33.303055,34.5362369 34.1963887,33.6386892 35.2979448,33.6390081 C36.3995009,33.6393269 37.2923205,34.5373916 37.292321,35.6451006 C37.2904203,36.7529195 36.397313,37.6502397 35.2956463,37.6511939 L35.2956463,37.6511939 Z M40.9966252,36.4396498 C41.0043089,36.4888067 41.0061184,36.5105831 40.9902802,36.5078888 C39.3052126,36.2212311 38.0928048,35.9716928 37.311013,35.7718082 C37.2664185,35.7604065 37.2871704,35.7124634 37.2871704,35.6379852 C37.2871704,35.5883331 37.2871704,35.5417074 37.2871704,35.4981079 C37.2688751,35.2815857 37.2672882,35.2718048 37.2049408,35.0834503 C37.155212,34.9332172 37.1105652,34.790863 37.0386047,34.6510162 C36.9666443,34.5111694 37.0162037,34.5377499 37.1647269,34.5700981 C38.8919106,34.9038276 40.1916159,35.1562896 41.0638428,35.3274841 C41.1394957,35.3423327 40.9902802,35.4678192 40.9661407,35.9008331 C40.9641699,35.9361865 40.9629752,35.9698635 40.9624191,36.0018981 C40.99452,34.9222144 41.8749969,34.0568711 42.9564629,34.0568711 C44.0582436,34.0568711 44.9514133,34.9550297 44.9514133,36.0629644 C44.949515,37.1701075 44.0574563,38.0671489 42.9564628,38.0690578 L42.9564628,38.0690578 C41.9827219,38.0690577 41.1719233,37.3675225 40.9966252,36.4396498 Z M35.2956463,34.4400575 L35.2956463,34.4435252 C35.9528538,34.4491472 36.4847842,34.9825073 36.4922717,35.6433667 C36.4922717,36.1300598 36.2007233,36.5688301 35.753575,36.7550795 C35.3064267,36.9413289 34.7917368,36.8383788 34.4495043,36.4942348 C34.1072718,36.1500908 34.0048937,35.632526 34.1901085,35.1828802 C34.3753234,34.7332343 34.8116565,34.4400574 35.2956463,34.4400575 Z M40.9966252,36.4396498 C40.9846976,36.3633414 40.9586147,36.2210524 40.9624191,36.0018981 C40.9618161,36.0221793 40.9615124,36.0425362 40.9615124,36.0629644 C40.9615124,36.1917194 40.9735748,36.3176413 40.9966252,36.4396498 Z M42.9564628,34.8579213 C42.2955849,34.8579213 41.7598374,35.3966612 41.7598374,36.0612306 C41.7598374,36.7257999 42.2955849,37.2645398 42.9564628,37.2645398 C43.6173408,37.2645398 44.1530882,36.7257999 44.1530882,36.0612306 C44.1474674,35.3990166 43.6149985,34.8635735 42.9564628,34.8579213 Z" fill="#33567A" fill-rule="nonzero"></path>
                        <mask id="mask-2" fill="white">
                            <use xlink:href="#path-1"></use>
                        </mask>
                        <g id="Mask" transform="translate(34.341905, 40.095258) rotate(15.000000) translate(-34.341905, -40.095258) "></g>
                    </g>
                </g>
            </g>
        </g>
    </g>
</svg>