<?xml version="1.0" encoding="UTF-8"?>
<svg width="26px" height="24px" viewBox="0 0 26 24" version="1.1" xmlns="http://www.w3.org/2000/svg" xmlns:xlink="http://www.w3.org/1999/xlink">
    <!-- Generator: Sketch 46 (44423) - http://www.bohemiancoding.com/sketch -->
    <title>赞-未点击</title>
    <desc>Created with Sketch.</desc>
    <defs></defs>
    <g id="新需求" stroke="none" stroke-width="1" fill="none" fill-rule="evenodd">
        <g id="主页-新手专区--内页" transform="translate(-707.000000, -838.000000)" fill-rule="nonzero" fill="#FFFFFF">
            <g id="点赞" transform="translate(660.000000, 827.000000)">
                <g id="Group" transform="translate(47.000000, 11.000000)">
                    <path d="M23.5520094,8.94274328 L16.8993314,8.94274328 L16.8228638,9.017655 C16.8228638,9.017655 16.8228638,8.94274328 16.8993314,8.94274328 L15.9052531,8.94274328 C15.4464477,8.94274328 15.2935126,8.64309637 15.5229153,8.26853776 L15.9817206,7.44450878 C15.9817206,7.44450878 15.9052531,7.44450878 15.9052531,7.44450878 L15.9817206,7.44450878 L16.975799,5.72153909 C17.664007,4.29821631 17.5875395,2.65015837 16.8993314,1.30174731 C16.0581882,-0.421222378 13.5347586,-0.421222378 12.6171479,1.22683559 L7.11148334,8.4183612 C6.88208066,8.71800811 6.3468077,9.017655 5.88800235,9.017655 L4.58805377,9.017655 L4.58805377,9.017655 L3.05870251,9.017655 C1.37641614,9.017655 0,10.3660661 0,12.014124 L0,21.003531 C0,22.6515889 1.37641614,24 3.05870251,24 L19.9580339,24 C21.6403203,24 23.3226067,22.7265007 23.7049445,21.0784427 L25.9225038,11.9392123 C26.3048416,10.2162426 25.2342957,8.94274328 23.5520094,8.94274328 Z M5,22 L3.5,22 C2.67499999,22 2,21.38125 2,20.625 L2,12.375 C2,11.61875 2.67499999,11 3.5,11 L5,11 L5,22 Z M23.9381886,11.5714286 L21.8829272,20.2857143 C21.670314,21.1428571 20.6781188,22 19.7567948,22 L7,22 L7,10.5714286 C7.77958191,10.5 8.5591638,10.0714286 9.05526137,9.42857143 L14.1579793,2.57142856 C14.2288504,2.49999999 14.2288504,2.49999999 14.2288504,2.42857142 C14.5832058,1.85714286 15.4336588,1.85714286 15.7171431,2.42857142 C16.2132407,3.42857142 16.2132407,4.49999999 15.7880142,5.42857142 L15.8588853,5.35714285 L15.7880142,5.49999998 C15.7880142,5.49999998 15.7880142,5.49999998 15.7880142,5.49999998 L14.4414636,7.85714284 C13.7327528,9.14285713 14.5832058,10.6428571 16.0714985,10.6428571 L23.1586067,10.6428571 C23.7964464,10.5714286 24.1508019,10.9285714 23.9381886,11.5714286 Z" id="赞-未点击"></path>
                </g>
            </g>
        </g>
    </g>
</svg>