<?xml version="1.0" encoding="UTF-8"?>
<svg width="1440px" height="194px" viewBox="0 0 1440 194" version="1.1" xmlns="http://www.w3.org/2000/svg" xmlns:xlink="http://www.w3.org/1999/xlink">
    <!-- Generator: Sketch 47 (45396) - http://www.bohemiancoding.com/sketch -->
    <title>量化学堂banner</title>
    <desc>Created with Sketch.</desc>
    <defs>
        <linearGradient x1="-23.1966146%" y1="-102.798808%" x2="96.1935764%" y2="152.359858%" id="linearGradient-1">
            <stop stop-color="#066FDD" offset="0%"></stop>
            <stop stop-color="#072F92" offset="86.9399157%"></stop>
            <stop stop-color="#072789" offset="97.3390571%"></stop>
            <stop stop-color="#072587" offset="100%"></stop>
        </linearGradient>
        <linearGradient x1="85.3553391%" y1="14.6446609%" x2="14.6446609%" y2="85.3553391%" id="linearGradient-2">
            <stop stop-color="#5C9BFC" offset="0%"></stop>
            <stop stop-color="#62A3FD" offset="100%"></stop>
        </linearGradient>
        <linearGradient x1="88.7607003%" y1="62.2097789%" x2="-20.7106781%" y2="50%" id="linearGradient-3">
            <stop stop-color="#82B3FF" offset="0%"></stop>
            <stop stop-color="#83B5FE" offset="100%"></stop>
        </linearGradient>
        <linearGradient x1="86.0415715%" y1="31.2256635%" x2="0%" y2="100%" id="linearGradient-4">
            <stop stop-color="#84B6FF" offset="0%"></stop>
            <stop stop-color="#9AC4FF" offset="100%"></stop>
        </linearGradient>
        <linearGradient x1="111.234408%" y1="-5.13570856%" x2="12.8427587%" y2="83.4565303%" id="linearGradient-5">
            <stop stop-color="#5A98FC" offset="0%"></stop>
            <stop stop-color="#5C9BFC" offset="0%"></stop>
            <stop stop-color="#5F9FFD" offset="54.447582%"></stop>
            <stop stop-color="#5FA0FD" offset="57.4243866%"></stop>
            <stop stop-color="#62A3FD" offset="100%"></stop>
        </linearGradient>
        <linearGradient x1="88.7607003%" y1="62.2097789%" x2="-20.7106781%" y2="50%" id="linearGradient-6">
            <stop stop-color="#82B3FF" offset="0%"></stop>
            <stop stop-color="#A6CAFF" offset="100%"></stop>
        </linearGradient>
        <linearGradient x1="20.4447278%" y1="27.2677064%" x2="77.7869214%" y2="58.6116891%" id="linearGradient-7">
            <stop stop-color="#A6CAFF" offset="0%"></stop>
            <stop stop-color="#83B5FE" offset="100%"></stop>
        </linearGradient>
        <linearGradient x1="88.7607003%" y1="62.2097789%" x2="19.0725737%" y2="19.3586451%" id="linearGradient-8">
            <stop stop-color="#82B3FF" offset="0%"></stop>
            <stop stop-color="#A6CAFF" offset="100%"></stop>
        </linearGradient>
        <polygon id="path-9" points="17.5932955 18.2036553 32.811121 12 27.7080898 28.0350485 12 32.5277198"></polygon>
        <filter x="-24.0%" y="-19.5%" width="148.1%" height="148.7%" filterUnits="objectBoundingBox" id="filter-10">
            <feOffset dx="0" dy="1" in="SourceAlpha" result="shadowOffsetOuter1"></feOffset>
            <feGaussianBlur stdDeviation="1.5" in="shadowOffsetOuter1" result="shadowBlurOuter1"></feGaussianBlur>
            <feColorMatrix values="0 0 0 0 0.644166139   0 0 0 0 0.785539261   0 0 0 0 0.983923257  0 0 0 0.5 0" type="matrix" in="shadowBlurOuter1"></feColorMatrix>
        </filter>
        <filter x="-18.9%" y="-12.8%" width="137.8%" height="138.4%" filterUnits="objectBoundingBox" id="filter-11">
            <feOffset dx="0" dy="5" in="SourceAlpha" result="shadowOffsetOuter1"></feOffset>
            <feGaussianBlur stdDeviation="4.5" in="shadowOffsetOuter1" result="shadowBlurOuter1"></feGaussianBlur>
            <feColorMatrix values="0 0 0 0 1   0 0 0 0 1   0 0 0 0 1  0 0 0 0.5 0" type="matrix" in="shadowBlurOuter1" result="shadowMatrixOuter1"></feColorMatrix>
            <feMerge>
                <feMergeNode in="shadowMatrixOuter1"></feMergeNode>
                <feMergeNode in="SourceGraphic"></feMergeNode>
            </feMerge>
        </filter>
        <linearGradient x1="26.2695312%" y1="0%" x2="81.0644531%" y2="85.0390625%" id="linearGradient-12">
            <stop stop-color="#FFF4CC" offset="0%"></stop>
            <stop stop-color="#FFE671" offset="100%"></stop>
        </linearGradient>
        <circle id="path-13" cx="804.5" cy="166.5" r="2.5"></circle>
        <filter x="-60.0%" y="-60.0%" width="220.0%" height="220.0%" filterUnits="objectBoundingBox" id="filter-14">
            <feOffset dx="0" dy="0" in="SourceAlpha" result="shadowOffsetOuter1"></feOffset>
            <feGaussianBlur stdDeviation="1" in="shadowOffsetOuter1" result="shadowBlurOuter1"></feGaussianBlur>
            <feColorMatrix values="0 0 0 0 1   0 0 0 0 1   0 0 0 0 1  0 0 0 0.5 0" type="matrix" in="shadowBlurOuter1"></feColorMatrix>
        </filter>
        <circle id="path-15" cx="720.5" cy="207.5" r="2.5"></circle>
        <filter x="-60.0%" y="-60.0%" width="220.0%" height="220.0%" filterUnits="objectBoundingBox" id="filter-16">
            <feOffset dx="0" dy="0" in="SourceAlpha" result="shadowOffsetOuter1"></feOffset>
            <feGaussianBlur stdDeviation="1" in="shadowOffsetOuter1" result="shadowBlurOuter1"></feGaussianBlur>
            <feColorMatrix values="0 0 0 0 1   0 0 0 0 1   0 0 0 0 1  0 0 0 0.5 0" type="matrix" in="shadowBlurOuter1"></feColorMatrix>
        </filter>
        <circle id="path-17" cx="638.5" cy="166.5" r="2.5"></circle>
        <filter x="-60.0%" y="-60.0%" width="220.0%" height="220.0%" filterUnits="objectBoundingBox" id="filter-18">
            <feOffset dx="0" dy="0" in="SourceAlpha" result="shadowOffsetOuter1"></feOffset>
            <feGaussianBlur stdDeviation="1" in="shadowOffsetOuter1" result="shadowBlurOuter1"></feGaussianBlur>
            <feColorMatrix values="0 0 0 0 1   0 0 0 0 1   0 0 0 0 1  0 0 0 0.5 0" type="matrix" in="shadowBlurOuter1"></feColorMatrix>
        </filter>
    </defs>
    <g id="新需求" stroke="none" stroke-width="1" fill="none" fill-rule="evenodd">
        <g id="主页-新手专区" transform="translate(0.000000, -50.000000)">
            <g id="量化学堂banner" transform="translate(0.000000, -4.000000)">
                <rect id="Rectangle-21-Copy" fill="url(#linearGradient-1)" transform="translate(720.000000, 151.000000) scale(-1, -1) translate(-720.000000, -151.000000) " x="0" y="54" width="1440" height="194"></rect>
                <polygon id="Rectangle-21" fill="#066FDD" points="1440 54 1440 248 0 248"></polygon>
                <path d="M456.62747,38.5789899 C443.489361,27.3546778 435.325341,24.2907396 432.13541,29.3871752 C427.350513,37.0318287 450.333088,62.9106216 445.675805,68.3834156 C441.018521,73.8562097 424.991487,70.0095756 426.050071,73.8562097 C427.108655,77.7028438 504.611343,146.307836 553.00358,161.457376 C601.395816,176.606916 701.216275,200.851041 720.595289,208.6148 C739.974303,216.37856 783.938961,226.974122 792.301896,230.354056 C800.664831,233.733989 845.218941,238.167645 844.05462,230.354056 C842.890299,222.540466 815.48136,208.18213 793.624214,205.439048 C771.767068,202.695967 749.693587,193.681596 732.150991,173.99874 C714.608395,154.315884 673.160219,119.970082 645.211283,113.277461 C617.262348,106.584841 572.562468,101.747649 535.123112,85.0655323 C510.163541,73.9441212 483.998327,58.4486071 456.62747,38.5789899 Z" id="Path-22" stroke="#89B8FF" opacity="0.3"></path>
                <g id="底" transform="translate(620.000000, 72.000000)">
                    <path d="M3.88343467,108.096271 L97.2518403,67.1682574 L97.2518403,67.1682574 C97.7541948,66.9480504 98.3249417,66.9438225 98.8305034,67.1565631 L98.8305034,67.1565631 L199.692015,109.599139 L200.552673,109.100891 L202.363922,107.139282 L202.363922,111.877102 C202.374547,111.995017 202.374731,112.11452 202.363922,112.234257 L202.363922,112.241403 L202.363257,112.241479 C202.344668,112.439332 202.296038,112.63775 202.214878,112.830621 C202.033286,113.262159 201.706054,113.616314 201.290189,113.831388 L102.311634,165.020298 C100.527217,165.943148 98.3993529,165.911723 96.6429661,164.936581 L2.03784496,112.412025 L2.03784496,112.412025 C1.3800376,112.046811 1.00873563,111.365465 1.00828834,110.662903 C1.0055269,110.663231 1.00276412,110.66356 1,110.663888 L1,105.716287 L3.88343467,108.096271 Z" id="Combined-Shape" fill="url(#linearGradient-2)"></path>
                    <path d="M202.369598,106.958884 C202.383716,107.248427 202.334823,107.545581 202.214878,107.830621 C202.033286,108.262159 201.706054,108.616314 201.290189,108.831388 L102.311634,160.020298 C100.527217,160.943148 98.3993529,160.911723 96.6429661,159.936581 L2.03784496,107.412025 L2.03784496,107.412025 C1.3800376,107.046811 1.00873563,106.365465 1.00828834,105.662903 C1.0055269,105.663231 1.00276412,105.66356 1,105.663888 L1,100.716287 L3.88343467,103.096271 L97.2518403,62.1682574 L97.2518403,62.1682574 C97.7541948,61.9480504 98.3249417,61.9438225 98.8305034,62.1565631 L98.8305034,62.1565631 L199.734899,104.617185 L201.471954,103.712991 L202.369598,101.952508 L202.369598,106.958884 Z" id="Combined-Shape" fill="url(#linearGradient-3)"></path>
                    <path d="M69.8232848,71.6276253 L171.025437,30.3718449 L171.025437,30.3718449 C172.048281,29.9548751 173.215481,30.4460334 173.632451,31.4688775 C173.80919,31.9024256 173.828227,32.3842387 173.686246,32.83038 L139.893864,139.014813 L139.893864,139.014813 C139.284644,140.92914 137.757796,142.411546 135.826314,142.96397 L31.7899207,172.719422 L31.7899207,172.719422 C30.7279337,173.023161 29.6207941,172.40848 29.3170551,171.346493 C29.1966757,170.9256 29.2177161,170.476837 29.376948,170.069054 L66.499242,75.0012827 L66.499242,75.0012827 C67.0977673,73.4684984 68.2995355,72.2487926 69.8232848,71.6276253 Z" id="Rectangle-22" fill="url(#linearGradient-4)" transform="translate(101.510190, 101.510190) rotate(45.000000) translate(-101.510190, -101.510190) "></path>
                </g>
                <g id="底-copy" transform="translate(627.000000, 166.000000)">
                    <path d="M21.3551495,8.25282836 C21.3909968,8.34941599 21.3897483,8.45973294 21.3429115,8.56054933 C21.3025756,8.64737279 21.2324373,8.71684991 21.1452358,8.75636184 L11.1769692,13.273087 C11.0600712,13.3260546 10.9248568,13.319715 10.8134277,13.256042 L1.72517771,8.06281982 L1.72517771,8.06281982 C1.54590248,7.96037808 1.47597277,7.7402297 1.55709235,7.55528532 L1.74993896,5.06164551 L5.29632568,5.72766113 C5.15535581,5.84032362 5.02039086,5.94808649 4.89143084,6.05094976 L11.0669807,3.48837828 L11.0669807,3.48837828 C11.1704628,3.44543789 11.2872105,3.44786524 11.3888184,3.49506973 L11.3888184,3.49506973 L19.2555891,7.14977321 L21.2903442,5.81542969 L21.3551495,8.25282836 Z" id="Combined-Shape" fill="url(#linearGradient-5)"></path>
                    <path d="M11.606205,1.0738542 L21.0146766,5.02745678 L21.0146766,5.02745678 C21.2692552,5.1344351 21.3889089,5.42753488 21.2819305,5.68211345 C21.235552,5.79248148 21.1511128,5.88254562 21.0439608,5.93593577 L11.5311986,10.6758143 L11.5311986,10.6758143 C11.3915636,10.7453896 11.2274559,10.7458009 11.0874739,10.6769265 L1.96850092,6.19018168 L1.96850092,6.19018168 C1.72072613,6.06827077 1.6186933,5.76858131 1.7406042,5.52080653 C1.791553,5.41725691 1.8767533,5.3345196 1.9817525,5.2866294 L11.205016,1.07989313 L11.205016,1.07989313 C11.3320379,1.02195837 11.477497,1.01976883 11.606205,1.0738542 Z" id="Combined-Shape" fill="url(#linearGradient-6)" transform="translate(11.520779, 6.136023) rotate(3.000000) translate(-11.520779, -6.136023) "></path>
                </g>
                <g id="底-copy-2" transform="translate(709.000000, 210.000000)">
                    <path d="M21.3551495,8.25282836 C21.3909968,8.34941599 21.3897483,8.45973294 21.3429115,8.56054933 C21.3025756,8.64737279 21.2324373,8.71684991 21.1452358,8.75636184 L11.1769692,13.273087 C11.0600712,13.3260546 10.9248568,13.319715 10.8134277,13.256042 L1.72517771,8.06281982 L1.72517771,8.06281982 C1.54590248,7.96037808 1.47597277,7.7402297 1.55709235,7.55528532 L1.74993896,5.06164551 L5.29632568,5.72766113 C5.15535581,5.84032362 5.02039086,5.94808649 4.89143084,6.05094976 L11.0669807,3.48837828 L11.0669807,3.48837828 C11.1704628,3.44543789 11.2872105,3.44786524 11.3888184,3.49506973 L11.3888184,3.49506973 L19.2555891,7.14977321 L21.2903442,5.81542969 L21.3551495,8.25282836 Z" id="Combined-Shape" fill="url(#linearGradient-5)"></path>
                    <path d="M11.606205,1.0738542 L21.0146766,5.02745678 L21.0146766,5.02745678 C21.2692552,5.1344351 21.3889089,5.42753488 21.2819305,5.68211345 C21.235552,5.79248148 21.1511128,5.88254562 21.0439608,5.93593577 L11.5311986,10.6758143 L11.5311986,10.6758143 C11.3915636,10.7453896 11.2274559,10.7458009 11.0874739,10.6769265 L1.96850092,6.19018168 L1.96850092,6.19018168 C1.72072613,6.06827077 1.6186933,5.76858131 1.7406042,5.52080653 C1.791553,5.41725691 1.8767533,5.3345196 1.9817525,5.2866294 L11.205016,1.07989313 L11.205016,1.07989313 C11.3320379,1.02195837 11.477497,1.01976883 11.606205,1.0738542 Z" id="Combined-Shape" fill="url(#linearGradient-7)" transform="translate(11.520779, 6.136023) rotate(3.000000) translate(-11.520779, -6.136023) "></path>
                </g>
                <g id="底-copy-3" transform="translate(793.000000, 167.000000)">
                    <path d="M21.3551495,8.25282836 C21.3909968,8.34941599 21.3897483,8.45973294 21.3429115,8.56054933 C21.3025756,8.64737279 21.2324373,8.71684991 21.1452358,8.75636184 L11.1769692,13.273087 C11.0600712,13.3260546 10.9248568,13.319715 10.8134277,13.256042 L1.72517771,8.06281982 L1.72517771,8.06281982 C1.54590248,7.96037808 1.47597277,7.7402297 1.55709235,7.55528532 L1.74993896,5.06164551 L5.29632568,5.72766113 C5.15535581,5.84032362 5.02039086,5.94808649 4.89143084,6.05094976 L11.0669807,3.48837828 L11.0669807,3.48837828 C11.1704628,3.44543789 11.2872105,3.44786524 11.3888184,3.49506973 L11.3888184,3.49506973 L19.2555891,7.14977321 L21.2903442,5.81542969 L21.3551495,8.25282836 Z" id="Combined-Shape" fill="url(#linearGradient-5)"></path>
                    <path d="M11.606205,1.0738542 L21.0146766,5.02745678 L21.0146766,5.02745678 C21.2692552,5.1344351 21.3889089,5.42753488 21.2819305,5.68211345 C21.235552,5.79248148 21.1511128,5.88254562 21.0439608,5.93593577 L11.5311986,10.6758143 L11.5311986,10.6758143 C11.3915636,10.7453896 11.2274559,10.7458009 11.0874739,10.6769265 L1.96850092,6.19018168 L1.96850092,6.19018168 C1.72072613,6.06827077 1.6186933,5.76858131 1.7406042,5.52080653 C1.791553,5.41725691 1.8767533,5.3345196 1.9817525,5.2866294 L11.205016,1.07989313 L11.205016,1.07989313 C11.3320379,1.02195837 11.477497,1.01976883 11.606205,1.0738542 Z" id="Combined-Shape" fill="url(#linearGradient-8)" transform="translate(11.520779, 6.136023) rotate(3.000000) translate(-11.520779, -6.136023) "></path>
                </g>
                <ellipse id="Oval-6" stroke="#FFFFFF" opacity="0.099999994" transform="translate(720.500000, 175.437364) rotate(90.000000) translate(-720.500000, -175.437364) " cx="720.5" cy="175.437364" rx="32.4373635" ry="55.5"></ellipse>
                <ellipse id="Oval-6-Copy" stroke="#FEFEFE" opacity="0.2" transform="translate(720.500000, 174.332681) rotate(90.000000) translate(-720.500000, -174.332681) " cx="720.5" cy="174.332681" rx="21.3326805" ry="36.5"></ellipse>
                <path d="M668,198.960449 L768.5,150.5" id="Path-32" stroke="#C2DBFF" stroke-linecap="round" stroke-dasharray="2"></path>
                <path d="M672,199.960449 L773.5,149.5" id="Path-32-Copy" stroke="#C2DBFF" stroke-linecap="round" stroke-dasharray="2" transform="translate(723.000000, 174.500000) scale(-1, 1) translate(-723.000000, -174.500000) "></path>
                <g id="Group" transform="translate(699.000000, 151.000000)">
                    <polygon id="Rectangle-22-Copy-3" fill="#EEF4FF" transform="translate(22.433467, 22.223297) rotate(45.000000) translate(-22.433467, -22.223297) " points="15.2959432 16.2012254 37.8669334 7 30.2981472 30.7830904 7 37.4465944"></polygon>
                    <g id="Rectangle-22-Copy-4" transform="translate(22.405561, 22.263860) rotate(45.000000) translate(-22.405561, -22.263860) ">
                        <use fill="black" fill-opacity="1" filter="url(#filter-10)" xlink:href="#path-9"></use>
                        <use fill="#FFFFFF" fill-rule="evenodd" xlink:href="#path-9"></use>
                    </g>
                </g>
                <g id="书" filter="url(#filter-11)" transform="translate(675.000000, 63.000000)">
                    <path d="M19.4779402,9 L0,56.3876994 L32.2177378,80.6411023 C33.9825206,82.4589236 35.5462319,83.5417141 36.9088718,83.8894737 C38.2715117,84.2372334 40.2768543,84.2372334 42.9248995,83.8894737 L83.5850234,86 L90,35.0152979 L89.1855519,35.0152979 C71.1878457,34.7236098 62.0817061,34.5430478 61.8671332,34.4736121 C61.6525602,34.4041764 47.5228292,25.9129724 19.4779402,9 Z" id="Path-23" stroke="#458CEE" stroke-width="1.5" fill="#FFFFFF"></path>
                    <path d="M20.6541458,8.40591396 L2,56.1030005 L14.0803761,65.7790403 L34.2781557,80.8246541 C36.484787,80.6277375 37.9575304,80.6795384 38.696386,80.9800568 C39.8046694,81.4308343 34.8273005,74.1294293 31.0425078,70.2724288 C29.0540594,68.2460439 22.2546795,63.7364175 13.4866373,58.7682385 C11.9937948,57.9223588 9.83415787,56.1985424 7.00772655,53.5967893 C10.4795708,45.2585446 16.0634858,31.5610718 23.7594715,12.504371 C23.8133322,12.3710018 27.7847898,15.3637386 35.6738444,21.4825815 L39,22.9270026 C37.2475024,19.0181039 35.8263585,16.7440266 34.7365682,16.1047706 C31.2365556,14.0517116 27.4485064,11.3501214 23.3724208,8 L20.6541458,8.40591396 Z" id="Path-24" fill="#E1ECFC"></path>
                    <polygon id="Path-28" fill="#E1ECFC" points="85.3218851 31 89 33.6655499 82.5400689 85 77 80.530098"></polygon>
                    <path d="M78.4213179,81.3461767 L82,85 L42.1433121,82.9772796 C41.5575611,82.2174331 40.9403002,81.6368237 40.2915295,81.2354514 C39.6427587,80.834079 38.8789156,80.4797882 38,80.172579 L39.1021044,78 L66.6006206,78.8696021 L78.4213179,81.3461767 Z" id="Path-27" fill="#E1ECFC"></path>
                    <path d="M39,79.4955624 C42.1272138,77.7145588 47.4893739,77.6107344 55.0864804,79.1840894 C62.683587,80.7574444 70.7875153,81.3084008 79.3982654,80.8369586 L86,30.3142917 C84.0252076,31.2862613 80.2906778,30.8868812 74.7964105,29.1161515 C66.5550094,26.4600568 59.4779934,23.7737916 55.9728748,25.5983508 C53.636129,26.8147237 52.2674201,27.9873239 51.8667481,29.1161515 L39,79.4955624 Z" id="Path-26" fill="#FCFDFF"></path>
                    <path d="M41.3553222,0 L23.5960372,51.4511098 C22.5123722,53.6060364 22.906379,55.5759826 24.7780576,57.3609484 C27.5855755,60.038397 37.0386647,68.0549 37.564251,70.8375278 C37.9146419,72.6926131 38.2760099,75.7467705 38.6483551,80 L51.5759343,29.5315895 C52.4809644,24.6320287 51.9373755,20.7848466 49.9451678,17.9900432 C46.9568561,13.7978381 42.5430507,11.2290893 41.3553222,8.23170229 C40.5635032,6.23344427 40.5635032,3.48954351 41.3553222,0 Z" id="Path-25" fill="#E1ECFC"></path>
                </g>
                <path d="M242.703792,32.3203125 C302.6465,61.9388021 340.394547,83.4036458 355.947932,96.7148437 C379.27801,116.681641 424.287776,137.189453 429.457698,144.269531 C434.62762,151.349609 441.535823,158.716797 426.928401,157.841797 C412.320979,156.966797 360.906917,132.736328 348.334651,129.234375 C335.762385,125.732422 318.854182,129.234375 307.494807,129.234375 C296.135432,129.234375 276.113948,117.987015 259.40887,95.1165544 C242.703792,72.2460937 221.40887,40.9609375 224.258479,32.3203125 C226.158219,26.5598958 232.306656,26.5598958 242.703792,32.3203125 Z" id="Path-29" stroke="#89B8FF" opacity="0.3"></path>
                <path d="M970,46.7703755 C1000.01302,72.5841663 1036.26042,85.6579076 1078.74219,85.9915993 C1142.46484,86.4921368 1216.12891,64.4311323 1248.42773,71.7094708 C1269.96029,76.5616965 1280.72656,74.7869355 1280.72656,66.3851878 L1288.00586,0 L970,46.7703755 Z" id="Path-30" stroke="#89B8FF" opacity="0.3"></path>
                <path d="M1136,263.974315 C1136.18555,242.915071 1143.28678,231.195344 1157.30371,228.815136 C1178.3291,225.244823 1199.07555,212.259436 1214.47656,218.825878 C1229.87757,225.392319 1231.80445,231.583094 1232.49805,247.185253 C1232.96044,257.586692 1228.14339,268.171978 1218.04688,278.941112 L1136,263.974315 Z" id="Path-31" stroke="#89B8FF" opacity="0.3"></path>
                <g id="Oval-7">
                    <use fill="black" fill-opacity="1" filter="url(#filter-14)" xlink:href="#path-13"></use>
                    <use fill="url(#linearGradient-12)" fill-rule="evenodd" xlink:href="#path-13"></use>
                </g>
                <g id="Oval-7-Copy">
                    <use fill="black" fill-opacity="1" filter="url(#filter-16)" xlink:href="#path-15"></use>
                    <use fill="url(#linearGradient-12)" fill-rule="evenodd" xlink:href="#path-15"></use>
                </g>
                <g id="Oval-7-Copy-2">
                    <use fill="black" fill-opacity="1" filter="url(#filter-18)" xlink:href="#path-17"></use>
                    <use fill="url(#linearGradient-12)" fill-rule="evenodd" xlink:href="#path-17"></use>
                </g>
                <path d="M438.643158,236.016604 C470.270513,251.644101 490.18738,262.969519 498.393756,269.992859 C510.703322,280.527868 534.451662,291.348331 537.17945,295.083967 C539.907237,298.819604 543.552187,302.706726 535.844926,302.245053 C528.137664,301.78338 501.010248,288.998745 494.376788,287.151022 C487.743329,285.303299 478.822115,287.151022 472.828608,287.151022 C466.835102,287.151022 456.271238,281.216618 447.457198,269.149559 C438.643158,257.0825 427.407395,240.575626 428.910924,236.016604 C429.913277,232.977256 433.157355,232.977256 438.643158,236.016604 Z" id="Path-29-Copy" stroke="#89B8FF" opacity="0.3" transform="translate(484.622966, 268.009804) rotate(180.000000) translate(-484.622966, -268.009804) "></path>
            </g>
        </g>
    </g>
</svg>